#!OML:ASF E:\Style4\Style4.ASF
:FULLY-SPECIFIED
:DEGREES
1799
root -0.233666 17.0985 -2.32048 15.3567 9.59174 2.82745
lowerback 19.458 3.67728 0.990135
upperback 10.1738 4.96281 -0.656694
thorax 0.258268 2.56049 -2.16986
lowerneck -2.12208 -4.76265 -4.63379
upperneck -14.8935 -5.85357 5.86338
head -4.22057 -2.90968 2.97157
rclavicle -8.26944e-014 1.82882e-014
rhumerus 60.3241 2.01358 -20.482
rradius 59.6741
rwrist -86.3714
rhand -3.9484 12.7087
rfingers 7.12502
rthumb 21.8035 -16.0831
lclavicle -8.26944e-014 1.82882e-014
lhumerus 65.0123 -3.49818 22.458
lradius 61.4725
lwrist 77.2012
lhand 12.5645 26.3333
lfingers 7.12502
lthumb 37.5545 52.2524
rfemur -45.0692 -8.07407 18.2258
rtibia 51.6418
rfoot -20.5329 -14.8118
rtoes -10.0647
lfemur -46.403 1.31404 -21.8867
ltibia 46.4734
lfoot -14.1975 0.677723
ltoes -7.7045
1800
root -0.232293 17.0888 -2.33222 15.367 9.56959 2.90173
lowerback 19.5121 3.67762 0.987248
upperback 10.2268 4.96313 -0.649703
thorax 0.287581 2.56137 -2.16231
lowerneck -2.10085 -4.77106 -4.70622
upperneck -14.9153 -5.8647 5.88549
head -4.22951 -2.91251 2.99424
rclavicle 2.78299e-014 -5.48646e-014
rhumerus 60.2818 2.20143 -20.3107
rradius 59.7089
rwrist -86.3057
rhand -3.93151 12.7531
rfingers 7.12502
rthumb 21.8197 -16.0368
lclavicle 2.78299e-014 -5.48646e-014
lhumerus 64.8928 -3.6777 22.4924
lradius 61.5979
lwrist 77.2914
lhand 12.3077 26.2864
lfingers 7.12502
lthumb 37.3117 52.2697
rfemur -45.2089 -8.11455 18.1458
rtibia 51.8022
rfoot -20.5285 -14.7814
rtoes -10.1997
lfemur -46.5114 1.32514 -21.989
ltibia 46.5854
lfoot -14.2926 0.762943
ltoes -8.36067
1801
root -0.229858 17.0814 -2.34188 15.41 9.50579 2.94838
lowerback 19.4679 3.68084 0.985713
upperback 10.3021 4.96748 -0.635308
thorax 0.390316 2.56502 -2.14031
lowerneck -2.00838 -4.77072 -4.73454
upperneck -15.4451 -5.82833 6.02458
head -3.94918 -2.92218 2.77763
rclavicle -3.57812e-014 1.51076e-014
rhumerus 60.2812 2.34936 -20.1515
rradius 59.7634
rwrist -86.3137
rhand -3.94983 12.723
rfingers 7.12502
rthumb 21.8021 -16.069
lclavicle -3.57812e-014 1.51076e-014
lhumerus 64.7667 -3.79948 22.5922
lradius 61.6683
lwrist 77.3424
lhand 12.3569 26.3676
lfingers 7.12502
lthumb 37.3582 52.3386
rfemur -45.3911 -8.14754 18.1036
rtibia 51.9526
rfoot -20.5072 -14.7693
rtoes -10.4421
lfemur -46.6455 1.35536 -22.0618
ltibia 46.7006
lfoot -14.3561 0.839845
ltoes -8.63388
1802
root -0.229883 17.0735 -2.3516 15.4602 9.33917 2.98486
lowerback 19.4119 3.71632 0.94744
upperback 10.3507 5.00576 -0.665639
thorax 0.47271 2.58461 -2.15138
lowerneck -1.9687 -4.78446 -4.73688
upperneck -15.5167 -5.84937 6.0109
head -3.97678 -2.9324 2.77716
rclavicle -8.0309e-014 2.94201e-014
rhumerus 60.2656 2.49987 -20.0919
rradius 59.8257
rwrist -86.4537
rhand -3.92731 12.6386
rfingers 7.12502
rthumb 21.8238 -16.1509
lclavicle -8.0309e-014 2.94201e-014
lhumerus 64.6334 -3.93 22.621
lradius 61.7325
lwrist 77.4439
lhand 12.5634 26.6448
lfingers 7.12502
lthumb 37.5534 52.5641
rfemur -45.5913 -8.0552 18.0448
rtibia 52.0867
rfoot -20.4606 -14.7337
rtoes -10.6376
lfemur -46.7846 1.48187 -22.1473
ltibia 46.816
lfoot -14.3209 0.763978
ltoes -7.97242
1803
root -0.232245 17.0648 -2.36157 15.5427 9.0958 2.9971
lowerback 19.2963 3.80189 0.852761
upperback 10.3787 5.09917 -0.692216
thorax 0.55973 2.62866 -2.13343
lowerneck -1.93805 -4.80867 -4.73734
upperneck -15.5224 -5.88325 6.02025
head -3.98137 -2.95038 2.7817
rclavicle -3.81667e-014 7.15625e-015
rhumerus 60.2347 2.67882 -20.0688
rradius 59.8647
rwrist -86.4792
rhand -3.88633 12.5648
rfingers 7.12502
rthumb 21.8631 -16.2201
lclavicle -3.81667e-014 7.15625e-015
lhumerus 64.5419 -4.09884 22.6016
lradius 61.7984
lwrist 77.5462
lhand 12.696 26.7015
lfingers 7.12502
lthumb 37.6787 52.5874
rfemur -45.8373 -7.89909 18.0102
rtibia 52.2051
rfoot -20.4653 -14.6227
rtoes -10.6169
lfemur -46.9627 1.67709 -22.2164
ltibia 46.937
lfoot -14.3142 0.705183
ltoes -7.58045
1804
root -0.233129 17.0553 -2.36946 15.5764 8.9178 2.95931
lowerback 19.2284 3.87375 0.868419
upperback 10.4082 5.19317 -0.706503
thorax 0.633229 2.67718 -2.16714
lowerneck -1.92961 -4.8466 -4.68727
upperneck -15.5167 -5.94208 5.9643
head -3.98167 -2.97998 2.75764
rclavicle 2.14687e-014 -5.56597e-015
rhumerus 60.1988 2.86521 -19.9673
rradius 59.8325
rwrist -86.4337
rhand -3.95978 12.5879
rfingers 7.12502
rthumb 21.7926 -16.2052
lclavicle 2.14687e-014 -5.56597e-015
lhumerus 64.4744 -4.30722 22.6383
lradius 61.8911
lwrist 77.6059
lhand 12.7051 26.6897
lfingers 7.12502
lthumb 37.6873 52.5733
rfemur -45.9985 -7.78268 18.0321
rtibia 52.2956
rfoot -20.4837 -14.5629
rtoes -10.5851
lfemur -47.0955 1.83497 -22.2172
ltibia 47.0537
lfoot -14.3819 0.701639
ltoes -7.36298
1805
root -0.231912 17.0504 -2.37654 15.5028 8.91352 2.95385
lowerback 19.3193 3.85548 0.990518
upperback 10.4484 5.18884 -0.722829
thorax 0.643873 2.6814 -2.25616
lowerneck -1.89292 -4.87488 -4.6846
upperneck -15.5535 -5.97896 5.9869
head -3.99613 -3.00016 2.76674
rclavicle -2.22639e-014 -1.11319e-014
rhumerus 60.1783 3.07525 -19.8824
rradius 59.7913
rwrist -86.3726
rhand -4.18015 12.7983
rfingers 7.12502
rthumb 21.581 -16.0192
lclavicle -2.22639e-014 -1.11319e-014
lhumerus 64.3733 -4.50065 22.7192
lradius 61.9953
lwrist 77.6776
lhand 12.6063 26.9227
lfingers 7.12502
lthumb 37.5939 52.8312
rfemur -45.991 -7.81917 18.0397
rtibia 52.3742
rfoot -20.4906 -14.5736
rtoes -10.8666
lfemur -47.0965 1.86512 -22.2282
ltibia 47.1554
lfoot -14.4184 0.725811
ltoes -7.68909
